<svg width="256" height="256" viewBox="0 0 256 256" fill="none" xmlns="http://www.w3.org/2000/svg">
  <defs>
    <linearGradient id="uploadGradient" x1="0%" y1="0%" x2="100%" y2="100%">
      <stop offset="0%" style="stop-color:#4F46E5;stop-opacity:1" />
      <stop offset="100%" style="stop-color:#7C3AED;stop-opacity:1" />
    </linearGradient>
    <filter id="uploadGlow">
      <feGaussianBlur stdDeviation="3" result="coloredBlur"/>
      <feMerge> 
        <feMergeNode in="coloredBlur"/>
        <feMergeNode in="SourceGraphic"/> 
      </feMerge>
    </filter>
  </defs>
  
  <!-- Background circle with gradient -->
  <circle cx="128" cy="128" r="100" fill="url(#uploadGradient)" opacity="0.1" filter="url(#uploadGlow)"/>
  
  <!-- Main upload icon -->
  <g transform="translate(128, 128)">
    <!-- Cloud base -->
    <path d="M-40 10 C-50 10 -55 0 -45 -10 C-35 -20 -15 -20 -5 -10 C5 -15 15 -10 20 0 C25 10 15 20 5 20 Z" 
          fill="url(#uploadGradient)" opacity="0.8" filter="url(#uploadGlow)"/>
    
    <!-- Upload arrow -->
    <g transform="translate(0, -5)">
      <!-- Arrow shaft -->
      <rect x="-3" y="-15" width="6" height="25" rx="3" fill="#E5E7EB" opacity="0.9"/>
      
      <!-- Arrow head -->
      <path d="M0 -25 L-12 -10 L-6 -10 L0 -18 L6 -10 L12 -10 Z" 
            fill="#F3F4F6" opacity="0.95"/>
    </g>
    
    <!-- Subtle highlight -->
    <ellipse cx="-15" cy="-5" rx="8" ry="4" fill="#FFFFFF" opacity="0.2"/>
  </g>
</svg>